<svg width="134" height="160" viewBox="0 0 134 160" fill="none" xmlns="http://www.w3.org/2000/svg">
<path d="M33.1403 134.645C33.1403 141.556 27.5613 147.135 20.6501 147.135H15.3625C8.45128 147.135 2.87231 141.556 2.87231 134.645V109.872C2.87231 102.961 8.45128 97.3821 15.3625 97.3821H20.6501C27.5613 97.3821 33.1403 102.961 33.1403 109.872V134.645Z" fill="#7A7AB8"/>
<path d="M20.6505 148.384H15.363C7.78563 148.384 1.62378 142.222 1.62378 134.645V109.872C1.62378 102.295 7.78563 96.133 15.363 96.133H20.6505C28.2279 96.133 34.3898 102.295 34.3898 109.872V134.645C34.3898 142.222 28.2279 148.384 20.6505 148.384ZM15.4047 98.6311C9.20118 98.6311 4.16345 103.669 4.16345 109.872V134.645C4.16345 140.848 9.20118 145.886 15.4047 145.886H20.6922C26.8957 145.886 31.9334 140.848 31.9334 134.645V109.872C31.9334 103.669 26.8957 98.6311 20.6922 98.6311H15.4047Z" fill="#1F1D2B"/>
<path d="M20.6501 97.3821C20.6501 102.212 18.9431 102.545 14.7797 102.545C10.6162 102.545 7.82676 112.245 7.82676 117.741C7.82676 121.696 4.66258 122.279 2.87231 122.321V134.645C2.87231 141.556 8.45128 147.135 15.3625 147.135H20.6501C27.5613 147.135 33.1403 141.556 33.1403 134.645V109.872C33.1403 103.003 27.5613 97.3821 20.6501 97.3821Z" fill="#525298"/>
<path d="M20.6505 148.384H15.363C7.78563 148.384 1.62378 142.222 1.62378 134.645V122.321C1.62378 121.655 2.16502 121.072 2.8728 121.072C6.57824 121.03 6.57822 118.574 6.57822 117.741C6.57822 111.996 9.40935 101.296 14.7801 101.296C18.6938 101.296 19.4015 101.171 19.4015 97.3821C19.4015 96.6743 19.9428 96.133 20.6505 96.133C28.2279 96.133 34.3898 102.295 34.3898 109.872V134.645C34.3898 142.222 28.2279 148.384 20.6505 148.384ZM4.16345 123.487V134.645C4.16345 140.848 9.20118 145.886 15.4047 145.886H20.6922C26.8957 145.886 31.9334 140.848 31.9334 134.645V109.872C31.9334 104.085 27.5202 99.2972 21.8996 98.7144C21.4832 103.419 18.777 103.835 14.8218 103.835C12.0739 103.835 9.11792 112.037 9.11792 117.783C9.07628 120.947 7.24437 123.029 4.16345 123.487Z" fill="#1F1D2B"/>
<path d="M1.24927 134.27C1.24927 134.728 1.62397 135.103 2.08195 135.103C2.53992 135.103 2.91463 134.728 2.91463 134.27V117.408C2.91463 116.95 2.53992 116.575 2.08195 116.575C1.62397 116.575 1.24927 116.95 1.24927 117.408V134.27Z" fill="#CDCDE4"/>
<path d="M2.08171 136.352C0.915951 136.352 0 135.436 0 134.27V117.408C0 116.242 0.915951 115.326 2.08171 115.326C3.24746 115.326 4.16341 116.242 4.16341 117.408V134.27C4.16341 135.436 3.20583 136.352 2.08171 136.352Z" fill="#1F1D2B"/>
<path d="M100.38 134.645C100.38 141.556 105.959 147.135 112.87 147.135H118.158C125.069 147.135 130.648 141.556 130.648 134.645V109.872C130.648 102.961 125.069 97.3821 118.158 97.3821H112.87C105.959 97.3821 100.38 102.961 100.38 109.872V134.645Z" fill="#7A7AB8"/>
<path d="M118.158 148.384H112.87C105.293 148.384 99.1309 142.222 99.1309 134.645V109.872C99.1309 102.295 105.293 96.133 112.87 96.133H118.158C125.735 96.133 131.897 102.295 131.897 109.872V134.645C131.897 142.222 125.735 148.384 118.158 148.384ZM112.87 98.6311C106.667 98.6311 101.629 103.669 101.629 109.872V134.645C101.629 140.848 106.667 145.886 112.87 145.886H118.158C124.361 145.886 129.399 140.848 129.399 134.645V109.872C129.399 103.669 124.361 98.6311 118.158 98.6311H112.87Z" fill="#1F1D2B"/>
<path d="M112.87 97.3821C112.87 102.212 114.577 102.545 118.741 102.545C122.904 102.545 125.694 112.245 125.694 117.741C125.694 121.696 128.858 122.279 130.648 122.321V134.645C130.648 141.556 125.069 147.135 118.158 147.135H112.87C105.959 147.135 100.38 141.556 100.38 134.645V109.872C100.38 103.003 106.001 97.3821 112.87 97.3821Z" fill="#525298"/>
<path d="M118.158 148.384H112.87C105.293 148.384 99.1309 142.222 99.1309 134.645V109.872C99.1309 102.295 105.293 96.133 112.87 96.133C113.578 96.133 114.119 96.6743 114.119 97.3821C114.119 101.171 114.869 101.296 118.741 101.296C124.111 101.296 126.942 111.996 126.942 117.741C126.942 118.532 126.942 121.03 130.648 121.072C131.314 121.072 131.897 121.655 131.897 122.321V134.645C131.897 142.222 125.735 148.384 118.158 148.384ZM111.704 98.7144C106.084 99.2972 101.671 104.085 101.671 109.872V134.645C101.671 140.848 106.708 145.886 112.912 145.886H118.199C124.403 145.886 129.441 140.848 129.441 134.645V123.487C126.318 123.029 124.486 120.947 124.486 117.741C124.486 111.996 121.53 103.794 118.782 103.794C114.827 103.794 112.079 103.419 111.704 98.7144Z" fill="#1F1D2B"/>
<path d="M132.313 134.27C132.313 134.728 131.938 135.103 131.48 135.103C131.022 135.103 130.648 134.728 130.648 134.27V117.408C130.648 116.95 131.022 116.575 131.48 116.575C131.938 116.575 132.313 116.95 132.313 117.408V134.27Z" fill="#CDCDE4"/>
<path d="M131.481 136.352C130.315 136.352 129.399 135.436 129.399 134.27V117.408C129.399 116.242 130.315 115.326 131.481 115.326C132.647 115.326 133.563 116.242 133.563 117.408V134.27C133.563 135.436 132.647 136.352 131.481 136.352Z" fill="#1F1D2B"/>
<path d="M72.4431 29.3937H61.0769C52.9583 29.3937 46.3801 22.7739 46.3801 14.6969C46.3801 6.57821 52.9999 0 61.0769 0H72.4431C80.5617 0 87.1399 6.57821 87.1399 14.6969C87.1399 22.7739 80.5201 29.3937 72.4431 29.3937ZM61.0353 4.12179C55.2065 4.12179 50.5019 8.86807 50.5019 14.6552C50.5019 20.484 55.2482 25.1886 61.0353 25.1886H72.4014C78.2302 25.1886 82.9348 20.4424 82.9348 14.6552C82.9348 8.82644 78.1886 4.12179 72.4014 4.12179H61.0353Z" fill="#1F1D2B"/>
<path d="M112.911 52.2092C111.704 28.2279 91.8863 9.11786 67.572 9.11786H65.9066C41.5923 9.11786 21.7744 28.2279 20.567 52.2092C20.5254 52.5422 20.5254 52.9169 20.5254 53.25V54.499V84.1009V141.931C20.5254 147.218 24.8137 151.507 30.1012 151.507H103.377C108.665 151.507 112.953 147.218 112.953 141.931V84.1009V54.499V53.25C112.995 52.9169 112.953 52.5422 112.911 52.2092Z" fill="#CDCDE4"/>
<path d="M103.419 152.756H30.1432C24.1895 152.756 19.3184 147.884 19.3184 141.931V53.25C19.3184 52.8753 19.3183 52.5006 19.36 52.1259C20.609 27.312 41.0514 7.86884 65.9486 7.86884H67.6139C92.4695 7.86884 112.912 27.312 114.202 52.1259C114.244 52.5006 114.244 52.8753 114.244 53.25V141.931C114.244 147.884 109.373 152.756 103.419 152.756ZM65.9486 10.3669C42.3837 10.3669 23.0238 28.7691 21.858 52.2508C21.858 52.2924 21.858 52.2924 21.858 52.3341C21.8164 52.6255 21.8164 52.9586 21.8164 53.25V141.931C21.8164 146.51 25.5635 150.257 30.1432 150.257H103.419C107.999 150.257 111.746 146.51 111.746 141.931V53.25C111.746 52.9586 111.746 52.6671 111.704 52.3341C111.704 52.2924 111.704 52.2924 111.704 52.2508C110.539 28.7691 91.1788 10.3669 67.6139 10.3669H65.9486Z" fill="#1F1D2B"/>
<path d="M112.911 52.2092C111.704 28.2279 91.8863 9.11786 67.572 9.11786H65.9066C41.5923 9.11786 21.7744 28.2279 20.567 52.2092C20.5254 52.5422 20.5254 52.9169 20.5254 53.25V54.499V84.1009V141.931C20.5254 147.218 24.8137 151.507 30.1012 151.507H103.377C108.665 151.507 112.953 147.218 112.953 141.931V84.1009V54.499V53.25C112.995 52.9169 112.953 52.5422 112.911 52.2092Z" fill="#525298"/>
<path d="M103.419 152.756H30.1432C24.1895 152.756 19.3184 147.884 19.3184 141.931V53.25C19.3184 52.8753 19.3183 52.5006 19.36 52.1259C20.609 27.312 41.0514 7.86884 65.9486 7.86884H67.6139C92.4695 7.86884 112.912 27.312 114.202 52.1259C114.244 52.5006 114.244 52.8753 114.244 53.25V141.931C114.244 147.884 109.373 152.756 103.419 152.756ZM65.9486 10.3669C42.3837 10.3669 23.0238 28.7691 21.858 52.2508C21.858 52.2924 21.858 52.2924 21.858 52.3341C21.8164 52.6255 21.8164 52.9586 21.8164 53.25V141.931C21.8164 146.51 25.5635 150.257 30.1432 150.257H103.419C107.999 150.257 111.746 146.51 111.746 141.931V53.25C111.746 52.9586 111.746 52.6671 111.704 52.3341C111.704 52.2924 111.704 52.2924 111.704 52.2508C110.539 28.7691 91.1788 10.3669 67.6139 10.3669H65.9486Z" fill="#1F1D2B"/>
<path d="M110.455 52.8753C109.331 30.1847 90.5541 12.1155 67.5721 12.1155H65.9899C43.0079 12.1155 24.2309 30.1847 23.1068 52.8753C23.0652 53.2084 23.0652 53.5415 23.0652 53.8745V55.0403V83.06V137.767C23.0652 142.763 27.1037 146.843 32.1414 146.843H101.462C106.458 146.843 110.538 142.805 110.538 137.767V83.06V55.0403V53.8745C110.497 53.5415 110.497 53.2084 110.455 52.8753Z" fill="#525298"/>
<path d="M98.0066 8.70148H35.5554C28.6442 8.70148 23.0652 14.2804 23.0652 21.1917V27.3119V42.9247V47.5461C23.0652 61.327 34.2648 72.5266 48.0456 72.5266H85.5163C99.2972 72.5266 110.497 61.327 110.497 47.5461V42.9247V27.3119V21.1917C110.497 14.2804 104.918 8.70148 98.0066 8.70148Z" fill="#7A7AB8"/>
<path d="M98.0066 8.70148H35.5554C28.6442 8.70148 23.0652 14.2804 23.0652 21.1917V27.3119V28.3111C23.0652 21.3999 28.6442 15.8209 35.5554 15.8209H98.0066C104.918 15.8209 110.497 21.3999 110.497 28.3111V27.3119V21.1917C110.497 14.2804 104.918 8.70148 98.0066 8.70148Z" fill="#ACACD3"/>
<path d="M85.5166 73.7756H48.0459C33.5572 73.7756 21.8164 61.9931 21.8164 47.5461V21.1917C21.8164 13.6143 27.9783 7.45245 35.5557 7.45245H98.0068C105.584 7.45245 111.746 13.6143 111.746 21.1917V47.5461C111.746 62.0348 99.9636 73.7756 85.5166 73.7756ZM35.5557 9.9505C29.3522 9.9505 24.3145 14.9882 24.3145 21.1917V47.5461C24.3145 60.6192 34.9728 71.2775 48.0459 71.2775H85.5166C98.5897 71.2775 109.248 60.6192 109.248 47.5461V21.1917C109.248 14.9882 104.21 9.9505 98.0068 9.9505H35.5557Z" fill="#1F1D2B"/>
<path d="M35.3894 43.9241V88.2644C35.3894 90.6376 37.3046 92.5944 39.7194 92.5944C42.0925 92.5944 44.0493 90.6792 44.0493 88.2644V43.9241H35.3894Z" fill="#2F3142"/>
<path d="M39.7189 93.8018C36.6379 93.8018 34.1399 91.3037 34.1399 88.2228V43.9241C34.1399 43.2163 34.6811 42.6751 35.3889 42.6751H44.0488C44.7566 42.6751 45.2978 43.2163 45.2978 43.9241V88.2644C45.2978 91.3037 42.7998 93.8018 39.7189 93.8018ZM36.6379 45.1731V88.2644C36.6379 89.9714 38.0119 91.3454 39.7189 91.3454C41.4259 91.3454 42.7998 89.9714 42.7998 88.2644V45.1731H36.6379Z" fill="#1F1D2B"/>
<path d="M44.8403 75.3161C44.8403 76.2321 44.0909 76.9815 43.1749 76.9815H36.222C35.3061 76.9815 34.5566 76.2321 34.5566 75.3161V65.4488C34.5566 64.5329 35.3061 63.7835 36.222 63.7835H43.1749C44.0909 63.7835 44.8403 64.5329 44.8403 65.4488V75.3161Z" fill="#2F3142"/>
<path d="M43.1747 78.2305H36.2218C34.598 78.2305 33.3074 76.9398 33.3074 75.3161V65.4488C33.3074 63.8251 34.598 62.5344 36.2218 62.5344H43.1747C44.7984 62.5344 46.089 63.8251 46.089 65.4488V75.3161C46.089 76.9398 44.7984 78.2305 43.1747 78.2305ZM36.2634 65.0325C36.0136 65.0325 35.847 65.199 35.847 65.4488V75.3161C35.847 75.5659 36.0136 75.7325 36.2634 75.7325H43.2163C43.4661 75.7325 43.6326 75.5659 43.6326 75.3161V65.4488C43.6326 65.199 43.4661 65.0325 43.2163 65.0325H36.2634Z" fill="#1F1D2B"/>
<path d="M89.2637 43.9241V88.2644C89.2637 90.6376 91.1788 92.5944 93.5936 92.5944C95.9668 92.5944 97.9235 90.6792 97.9235 88.2644V43.9241H89.2637Z" fill="#2F3142"/>
<path d="M93.5934 93.8018C90.5125 93.8018 88.0144 91.3037 88.0144 88.2228V43.9241C88.0144 43.2163 88.5556 42.6751 89.2634 42.6751H97.9233C98.6311 42.6751 99.1723 43.2163 99.1723 43.9241V88.2644C99.1723 91.3037 96.6743 93.8018 93.5934 93.8018ZM90.5124 45.1731V88.2644C90.5124 89.9714 91.8864 91.3454 93.5934 91.3454C95.3004 91.3454 96.6743 89.9714 96.6743 88.2644V45.1731H90.5124Z" fill="#1F1D2B"/>
<path d="M98.7146 75.3161C98.7146 76.2321 97.9652 76.9815 97.0493 76.9815H90.138C89.2221 76.9815 88.4727 76.2321 88.4727 75.3161V65.4488C88.4727 64.5329 89.2221 63.7835 90.138 63.7835H97.0909C98.0068 63.7835 98.7563 64.5329 98.7563 65.4488V75.3161H98.7146Z" fill="#2F3142"/>
<path d="M97.049 78.2305H90.1378C88.514 78.2305 87.2234 76.9398 87.2234 75.3161V65.4488C87.2234 63.8251 88.514 62.5344 90.1378 62.5344H97.0907C98.7144 62.5344 100.005 63.8251 100.005 65.4488V75.3161C99.9634 76.9398 98.6728 78.2305 97.049 78.2305ZM90.1378 65.0325C89.888 65.0325 89.7214 65.199 89.7214 65.4488V75.3161C89.7214 75.5659 89.888 75.7325 90.1378 75.7325H97.0907C97.3405 75.7325 97.507 75.5659 97.507 75.3161V65.4488C97.507 65.199 97.3405 65.0325 97.0907 65.0325H90.1378Z" fill="#1F1D2B"/>
<path d="M114.161 139.1C114.161 149.966 105.376 158.751 94.5097 158.751H39.0114C28.1865 158.751 19.3601 149.966 19.3601 139.1V125.236C19.3601 114.411 28.1449 105.584 39.0114 105.584H94.5097C105.335 105.584 114.161 114.369 114.161 125.236V139.1Z" fill="#525298"/>
<path d="M94.5092 160H39.0109C27.4783 160 18.1106 150.632 18.1106 139.1V125.236C18.1106 113.703 27.4783 104.335 39.0109 104.335H94.5092C106.042 104.335 115.409 113.703 115.409 125.236V139.1C115.409 150.632 106.042 160 94.5092 160ZM39.0109 106.875C28.8522 106.875 20.6086 115.118 20.6086 125.277V139.141C20.6086 149.3 28.8522 157.544 39.0109 157.544H94.5092C104.668 157.544 112.911 149.3 112.911 139.141V125.277C112.911 115.118 104.668 106.875 94.5092 106.875H39.0109Z" fill="#1F1D2B"/>
<path d="M94.5092 102.545H39.0109C32.4328 102.545 26.604 105.792 23.0234 110.788V113.536V118.158C23.0234 131.939 34.223 143.138 48.0039 143.138H85.4746C99.2555 143.138 110.455 131.939 110.455 118.158V113.536V110.788C106.916 105.792 101.129 102.545 94.5092 102.545Z" fill="#7A7AB8"/>
<path d="M85.5166 144.387H48.0459C33.5572 144.387 21.8164 132.605 21.8164 118.158V110.788C21.8164 110.539 21.8997 110.289 22.0662 110.081C25.9798 104.585 32.3498 101.338 39.0529 101.338H94.5512C101.254 101.338 107.624 104.627 111.538 110.081C111.704 110.289 111.788 110.539 111.788 110.788V118.158C111.746 132.646 99.9636 144.387 85.5166 144.387ZM24.3145 111.205V118.158C24.3145 131.231 34.9728 141.889 48.0459 141.889H85.5166C98.5897 141.889 109.248 131.231 109.248 118.158V111.205C105.792 106.583 100.297 103.836 94.5095 103.836H39.0113C33.2241 103.794 27.7701 106.542 24.3145 111.205Z" fill="#1F1D2B"/>
<path d="M45.7145 138.225C48.2899 138.225 50.3776 136.138 50.3776 133.562C50.3776 130.987 48.2899 128.899 45.7145 128.899C43.1392 128.899 41.0515 130.987 41.0515 133.562C41.0515 136.138 43.1392 138.225 45.7145 138.225Z" fill="#2F3142"/>
<path d="M45.714 139.474C42.4666 139.474 39.802 136.81 39.802 133.562C39.802 130.315 42.4666 127.65 45.714 127.65C48.9615 127.65 51.6261 130.315 51.6261 133.562C51.6261 136.81 48.9615 139.474 45.714 139.474ZM45.714 130.148C43.8405 130.148 42.3 131.689 42.3 133.562C42.3 135.436 43.8405 136.976 45.714 136.976C47.5876 136.976 49.1281 135.436 49.1281 133.562C49.1281 131.647 47.5876 130.148 45.714 130.148Z" fill="#1F1D2B"/>
<path d="M87.8478 138.225C90.4231 138.225 92.5108 136.138 92.5108 133.562C92.5108 130.987 90.4231 128.899 87.8478 128.899C85.2725 128.899 83.1848 130.987 83.1848 133.562C83.1848 136.138 85.2725 138.225 87.8478 138.225Z" fill="#2F3142"/>
<path d="M87.8483 139.474C84.6008 139.474 81.9363 136.81 81.9363 133.562C81.9363 130.315 84.6008 127.65 87.8483 127.65C91.0958 127.65 93.7603 130.315 93.7603 133.562C93.7603 136.81 91.0958 139.474 87.8483 139.474ZM87.8483 130.148C85.9748 130.148 84.4343 131.689 84.4343 133.562C84.4343 135.436 85.9748 136.976 87.8483 136.976C89.7218 136.976 91.2623 135.436 91.2623 133.562C91.2623 131.647 89.7218 130.148 87.8483 130.148Z" fill="#1F1D2B"/>
<path d="M54.5 39C54.5 35.6863 57.1863 33 60.5 33H72.5C75.8137 33 78.5 35.6863 78.5 39V51C78.5 54.3137 75.8137 57 72.5 57H60.5C57.1863 57 54.5 54.3137 54.5 51V39Z" fill="#CDCDE4"/>
<path fill-rule="evenodd" clip-rule="evenodd" d="M72.5 35H60.5C58.2909 35 56.5 36.7908 56.5 39V51C56.5 53.2091 58.2909 55 60.5 55H72.5C74.7091 55 76.5 53.2091 76.5 51V39C76.5 36.7908 74.7091 35 72.5 35ZM60.5 33C57.1863 33 54.5 35.6863 54.5 39V51C54.5 54.3137 57.1863 57 60.5 57H72.5C75.8137 57 78.5 54.3137 78.5 51V39C78.5 35.6863 75.8137 33 72.5 33H60.5Z" fill="#1F1D2B"/>
<path fill-rule="evenodd" clip-rule="evenodd" d="M65.22 46.3182C64.5986 46.1984 64.0077 45.9929 63.46 45.7146C62.7342 45.3458 62.0843 44.849 61.54 44.254C60.4469 43.0588 59.78 41.4673 59.78 39.72C59.78 38.2178 60.9978 37 62.5 37C64.0022 37 65.22 38.2178 65.22 39.72V44.5132C65.6284 44.622 66.0574 44.68 66.5 44.68C66.9426 44.68 67.3717 44.622 67.78 44.5132V39.72C67.78 38.2178 68.9978 37 70.5 37C72.0022 37 73.22 38.2178 73.22 39.72C73.22 41.3437 72.6441 42.8329 71.6855 43.9945C71.6125 44.0829 71.5373 44.1694 71.46 44.254C70.9158 44.849 70.2659 45.3458 69.54 45.7146C69.0142 45.9818 68.4486 46.1818 67.8543 46.3034C67.8296 46.3085 67.8048 46.3134 67.78 46.3182C67.3657 46.3981 66.9377 46.44 66.5 46.44C66.0623 46.44 65.6344 46.3981 65.22 46.3182ZM71.46 39.72C71.46 41.3138 70.7083 42.732 69.54 43.6394V39.72C69.54 39.1898 69.9698 38.76 70.5 38.76C71.0302 38.76 71.46 39.1898 71.46 39.72ZM63.46 43.6394V39.72C63.46 39.1898 63.0302 38.76 62.5 38.76C61.9698 38.76 61.54 39.1898 61.54 39.72C61.54 41.3138 62.2918 42.732 63.46 43.6394Z" fill="#1F1D2B"/>
<path d="M61.54 50.28V46.5989C60.8742 46.118 60.281 45.5428 59.78 44.8929V50.28C59.78 51.7822 60.9978 53 62.5 53C64.0022 53 65.22 51.7822 65.22 50.28V49.8807C65.6393 49.933 66.0665 49.9599 66.5 49.9599C66.9335 49.9599 67.3607 49.933 67.78 49.8807V50.28C67.78 51.7822 68.9978 53 70.5 53C72.0022 53 73.22 51.7822 73.22 50.28V44.8929C72.719 45.5428 72.1258 46.118 71.46 46.5989V50.28C71.46 50.8102 71.0302 51.24 70.5 51.24C69.9698 51.24 69.54 50.8102 69.54 50.28V47.6388C68.5963 48.0013 67.5714 48.1999 66.5 48.1999C65.4287 48.1999 64.4037 48.0012 63.46 47.6387V50.28C63.46 50.8102 63.0302 51.24 62.5 51.24C61.9698 51.24 61.54 50.8102 61.54 50.28Z" fill="#1F1D2B"/>
</svg>
